# xmcd
#
# Track frame offsets: 
#        150
#        17839
#        34171
#        46025
#        63559
#        77961
#        96641
#        127360
#        140018
#        157023
#
# Disc length: 2361 seconds
#
# Revision: 0
# Processed by: cddbd v1.5.2PL0 Copyright (c) Steve Scherf et al.
# Submitted via: ExactAudioCopyFreeDBPlugin 1.0
#
DISCID=9409370a
DTITLE=Burro Morto - Baptista Virou Máquina
DYEAR=1900
DGENRE=
TTITLE0=O céu acima do porto
TTITLE1=Transistor riddim
TTITLE2=Tocandira
TTITLE3=Baptista, o maquinista
TTITLE4=Volks velho
TTITLE5=Foda do futuro
TTITLE6=Kalakuta
TTITLE7=Cataclisma
TTITLE8=Volte amor
TTITLE9=Luz vermelha
EXTD=
EXTT0=
EXTT1=
EXTT2=
EXTT3=
EXTT4=
EXTT5=
EXTT6=
EXTT7=
EXTT8=
EXTT9=
PLAYORDER=
